<?xml version="1.0" encoding="UTF-8" standalone="no"?>
<!DOCTYPE svg PUBLIC "-//W3C//DTD SVG 1.1//EN" "http://www.w3.org/Graphics/SVG/1.1/DTD/svg11.dtd">
<svg width="100%" height="100%" viewBox="0 0 2008 866" version="1.1" xmlns="http://www.w3.org/2000/svg" xmlns:xlink="http://www.w3.org/1999/xlink" xml:space="preserve" xmlns:serif="http://www.serif.com/" style="fill-rule:evenodd;clip-rule:evenodd;stroke-linejoin:round;stroke-miterlimit:2;">
    <g id="Artboard1" transform="matrix(1,0,0,1,-38.7989,-45.2345)">
        <rect x="38.799" y="45.234" width="2007.42" height="865.385" style="fill:none;"/>
        <g transform="matrix(4.16667,0,0,4.16667,0.79892,0.23448)">
            <path d="M150.39,173.085C150.128,173.378 149.884,173.651 149.64,173.924C149.507,174.073 149.376,174.225 149.24,174.37C149.167,174.448 149.073,174.499 148.966,174.452C148.869,174.41 148.858,174.315 148.861,174.22C148.863,174.184 148.863,174.147 148.869,174.111C148.996,173.442 149.123,172.773 149.25,172.103C149.284,171.919 149.317,171.734 149.354,171.528C149.3,171.555 149.265,171.571 149.23,171.589C149.044,171.685 148.859,171.787 148.67,171.878C148.453,171.983 148.328,171.938 148.215,171.726C147.951,171.233 147.687,170.741 147.423,170.249C147.405,170.215 147.385,170.183 147.359,170.14C147.334,170.185 147.315,170.215 147.298,170.246C147.031,170.745 146.764,171.244 146.496,171.742C146.395,171.93 146.28,171.972 146.083,171.892C146.036,171.872 145.991,171.848 145.946,171.825C145.76,171.729 145.574,171.633 145.377,171.531C145.379,171.574 145.377,171.603 145.382,171.631C145.5,172.257 145.62,172.884 145.737,173.511C145.782,173.757 145.826,174.003 145.853,174.251C145.86,174.313 145.814,174.415 145.763,174.44C145.706,174.468 145.615,174.436 145.542,174.417C145.507,174.408 145.479,174.37 145.452,174.34C145.12,173.969 144.789,173.598 144.458,173.227C144.42,173.184 144.382,173.143 144.33,173.088C144.27,173.295 144.216,173.482 144.161,173.668C144.111,173.842 144.019,173.9 143.845,173.864C143.561,173.805 143.278,173.743 142.995,173.683C142.826,173.648 142.657,173.614 142.476,173.577C142.485,173.614 142.488,173.631 142.493,173.648C142.63,174.152 142.769,174.655 142.903,175.159C142.945,175.316 142.909,175.375 142.763,175.442C142.599,175.516 142.437,175.594 142.261,175.676C142.309,175.717 142.344,175.747 142.38,175.776C143.141,176.394 143.901,177.013 144.664,177.629C144.815,177.751 144.866,177.89 144.8,178.079C144.73,178.28 144.675,178.485 144.608,178.708C145.058,178.644 145.491,178.582 145.925,178.522C146.284,178.472 146.643,178.422 147.003,178.379C147.148,178.362 147.251,178.467 147.252,178.613C147.253,178.66 147.25,178.708 147.248,178.755C147.214,179.499 147.18,180.242 147.147,180.986C147.144,181.039 147.146,181.092 147.146,181.145L147.538,181.145C147.538,181.103 147.538,181.068 147.537,181.032C147.519,180.241 147.501,179.449 147.483,178.657C147.478,178.448 147.569,178.355 147.771,178.382C148.217,178.44 148.662,178.504 149.107,178.566C149.436,178.612 149.766,178.658 150.106,178.706C150.098,178.671 150.095,178.651 150.089,178.631C150.028,178.426 149.967,178.221 149.905,178.017C149.864,177.884 149.903,177.774 149.999,177.681C150.033,177.648 150.07,177.619 150.107,177.589C150.82,177.01 151.534,176.432 152.247,175.852C152.315,175.797 152.382,175.74 152.458,175.675C152.287,175.595 152.134,175.521 151.979,175.452C151.805,175.373 151.774,175.324 151.823,175.139C151.949,174.667 152.079,174.195 152.208,173.724C152.22,173.68 152.23,173.637 152.243,173.585C152.203,173.588 152.177,173.587 152.153,173.592C151.735,173.681 151.316,173.769 150.898,173.858C150.698,173.901 150.611,173.85 150.553,173.65C150.501,173.47 150.449,173.289 150.39,173.085Z" style="fill:rgb(23,27,46);"/>
            <path d="M149.945,93.095L150.022,93.074L150.066,93.059L150.193,93.024C150.225,93.019 150.263,93.016 150.294,93.026C150.376,93.05 150.451,93.131 150.494,93.23L150.562,93.409L150.702,93.777L150.788,94.005L150.8,94.038L151.719,97.228L151.991,98.163L152.093,98.533L152.1,98.535L152.154,98.732L152.072,98.751C152.04,98.763 152.002,98.759 151.97,98.749C151.907,98.73 151.851,98.685 151.814,98.623C151.807,98.621 151.807,98.614 151.807,98.614L151.802,98.576L151.789,98.579C151.783,98.57 151.783,98.563 151.776,98.554L151.648,98.212L151.514,97.846L150.151,94.234L150.017,93.876L150.017,93.868L149.877,93.501L149.84,93.403C149.785,93.263 149.831,93.125 149.945,93.095Z" style="fill:rgb(180,45,43);fill-rule:nonzero;"/>
            <path d="M148.699,93.301L148.756,93.282L148.845,93.258L148.946,93.23C148.978,93.218 149.016,93.223 149.048,93.232C149.13,93.257 149.205,93.329 149.248,93.436L149.308,93.606L149.449,93.974L149.479,94.063L149.584,94.332L150.94,97.943L151.074,98.309L151.178,98.578C151.19,98.611 151.202,98.643 151.202,98.679C151.207,98.783 151.161,98.87 151.073,98.886L150.825,98.957C150.793,98.969 150.755,98.965 150.724,98.955C150.648,98.932 150.573,98.867 150.53,98.774C150.53,98.767 150.523,98.765 150.524,98.758L150.395,98.409L150.255,98.041L148.899,94.43L148.764,94.065L148.752,94.033L148.624,93.697L148.593,93.609C148.538,93.469 148.584,93.331 148.699,93.301Z" style="fill:rgb(180,45,43);fill-rule:nonzero;"/>
            <path d="M147.487,93.607L147.735,93.537C147.767,93.532 147.804,93.528 147.836,93.538C147.918,93.562 147.999,93.645 148.036,93.743L148.097,93.906L148.237,94.273C148.225,94.276 148.212,94.28 148.2,94.276C148.212,94.287 148.231,94.293 148.244,94.297L148.372,94.639L149.728,98.249L149.869,98.617L149.966,98.885C149.979,98.918 149.991,98.957 149.99,98.986C149.995,99.088 149.95,99.176 149.867,99.202L149.613,99.263C149.581,99.275 149.55,99.273 149.512,99.262C149.436,99.239 149.368,99.175 149.324,99.083C149.325,99.075 149.318,99.073 149.318,99.066L149.184,98.715L149.043,98.34L147.687,94.737L147.553,94.371L147.54,94.339L147.412,94.004L147.382,93.922C147.327,93.776 147.379,93.64 147.487,93.607Z" style="fill:rgb(180,45,43);fill-rule:nonzero;"/>
            <path d="M143.554,95.626L143.589,95.724L143.723,96.094L143.728,96.1L143.86,96.459L145.184,100.086L145.321,100.45L145.447,100.793C145.448,100.804 145.453,100.809 145.454,100.82L145.443,100.826L145.463,100.858C145.463,100.858 145.468,100.864 145.464,100.869C145.476,100.941 145.463,101.012 145.428,101.068C145.411,101.096 145.385,101.124 145.353,101.136L145.278,101.176L145.191,100.991L145.194,100.986L145.03,100.638L144.627,99.753L143.242,96.738L143.23,96.705L143.146,96.476L143.012,96.106L142.947,95.926C142.914,95.823 142.918,95.712 142.964,95.64C142.982,95.612 143.013,95.59 143.04,95.572L143.158,95.515L143.202,95.497L143.273,95.463C143.379,95.411 143.504,95.484 143.554,95.626Z" style="fill:rgb(180,45,43);fill-rule:nonzero;"/>
            <path d="M144.594,94.979L144.629,95.066L144.751,95.404L144.762,95.436L144.899,95.801L146.227,99.422L146.361,99.792L146.492,100.141C146.496,100.146 146.493,100.152 146.498,100.157C146.525,100.255 146.511,100.354 146.469,100.421C146.451,100.449 146.425,100.477 146.394,100.489L146.16,100.599C146.083,100.644 145.991,100.609 145.928,100.527C145.904,100.5 145.892,100.468 145.88,100.435L145.783,100.163L145.646,99.798L144.317,96.177L144.221,95.905L144.186,95.818L144.052,95.447L143.987,95.279C143.95,95.17 143.959,95.066 144.005,94.993C144.023,94.966 144.049,94.937 144.081,94.925L144.175,94.879L144.258,94.839L144.314,94.815C144.42,94.763 144.545,94.837 144.594,94.979Z" style="fill:rgb(180,45,43);fill-rule:nonzero;"/>
            <path d="M145.691,94.463L145.721,94.545L145.843,94.882L145.854,94.915L145.991,95.279L147.315,98.895L147.453,99.271L147.58,99.625C147.585,99.63 147.581,99.636 147.586,99.641C147.614,99.739 147.604,99.833 147.561,99.9C147.54,99.933 147.518,99.956 147.486,99.968L147.254,100.088C147.175,100.123 147.083,100.087 147.02,100.006C147.001,99.984 146.984,99.947 146.972,99.914L146.871,99.647L146.738,99.277L145.41,95.656L145.284,95.313C145.291,95.302 145.301,95.285 145.304,95.269C145.297,95.28 145.285,95.285 145.273,95.291L145.14,94.921L145.079,94.758C145.043,94.659 145.051,94.544 145.097,94.471C145.115,94.443 145.146,94.421 145.173,94.404L145.406,94.294C145.509,94.248 145.637,94.316 145.691,94.463Z" style="fill:rgb(180,45,43);fill-rule:nonzero;"/>
            <path d="M146.228,94.399L146.198,94.325C146.143,94.178 146.189,94.04 146.303,94.01L146.551,93.939C146.589,93.936 146.62,93.939 146.652,93.948C146.734,93.973 146.815,94.047 146.852,94.145L147.048,94.667C147.035,94.663 147.022,94.666 147.009,94.67C147.022,94.673 147.041,94.687 147.053,94.69L147.06,94.692L147.182,95.025L147.188,95.027L148.538,98.628L148.679,98.996L148.789,99.289C148.795,99.313 148.801,99.344 148.8,99.365C148.818,99.479 148.772,99.581 148.683,99.604L148.429,99.673C148.398,99.678 148.366,99.676 148.328,99.664C148.246,99.64 148.171,99.566 148.135,99.469L147.994,99.101L147.859,98.735L147.291,97.235L147.285,97.211L146.362,94.772L146.228,94.399Z" style="fill:rgb(180,45,43);fill-rule:nonzero;"/>
            <path d="M218.673,93.939C222.505,93.939 222.25,90.45 222.25,88.525C222.25,82.148 219.567,80.824 218.545,78.057C224.932,77.696 231.831,72.041 242.178,73.364C239.368,76.493 237.196,84.434 237.196,88.645L237.196,96.226C237.196,100.437 239.368,103.685 242.178,106.813L191.079,106.813C193.762,103.685 196.062,100.437 196.062,96.226L196.062,65.062C193.89,65.784 191.974,67.228 191.335,69.875L191.079,69.875C191.079,66.506 192.102,59.287 196.062,55.196L196.062,35.222C196.062,31.011 193.762,27.883 191.079,24.634L242.178,24.634C239.368,27.883 237.196,31.011 237.196,35.222L237.196,42.923C237.196,47.134 239.368,54.955 242.178,58.084C232.342,57.723 225.443,52.308 218.545,53.391C219.567,50.624 222.25,49.3 222.25,43.043C222.25,40.998 222.505,37.629 218.673,37.629L211.008,37.629L211.008,54.955C214.329,57.121 217.651,59.648 223.144,59.648C224.677,59.648 227.232,59.407 228.637,56.76L228.893,56.881C228.637,62.175 225.316,71.319 218.928,71.319C216.118,71.319 213.691,69.394 211.008,67.469L211.008,93.939L218.673,93.939Z" style="fill:rgb(23,27,46);fill-rule:nonzero;"/>
            <path d="M38.177,143.969C44.961,143.969 48.417,140.713 48.417,134.323L48.417,119.493C48.417,112.982 44.961,109.848 38.177,109.848L32.8,109.848L32.8,143.969L38.177,143.969ZM45.217,196.777C40.097,199.43 36.129,200.515 32.8,200.515C24.096,200.515 20.384,193.039 11.551,190.99C14.239,187.735 16.544,184.6 16.544,180.38L16.544,156.869L11.551,156.869C14.239,153.734 16.544,150.479 16.544,146.259L16.544,107.436C16.544,103.217 14.239,100.083 11.551,96.948L39.841,96.948C56.354,96.948 64.546,99.721 64.546,116.841L64.546,136.855C64.546,149.756 56.354,156.869 39.841,156.869L32.8,156.869L32.8,182.67C32.8,192.437 35.873,194.245 45.217,196.777Z" style="fill:rgb(23,27,46);fill-rule:nonzero;"/>
            <path d="M87.72,180.131L95.401,180.131C99.241,180.131 98.985,176.634 98.985,174.705C98.985,168.315 96.297,166.989 95.273,164.216C102.186,165.421 109.098,159.875 118.955,159.514C116.139,162.648 113.962,170.606 113.962,174.826L113.962,182.421C113.962,186.641 116.139,189.897 118.955,193.031L67.751,193.031C70.439,189.897 72.743,186.641 72.743,182.421L72.743,121.294C72.743,117.074 70.439,113.939 67.751,110.684L92.713,110.684C90.024,113.939 87.72,117.074 87.72,121.294L87.72,180.131Z" style="fill:rgb(23,27,46);fill-rule:nonzero;"/>
            <path d="M204.463,193.031L179.502,193.031C182.19,189.897 184.494,186.641 184.494,182.421L184.494,121.294C184.494,117.074 182.19,113.939 179.502,110.684L208.687,110.684L218.544,158.911L228.401,110.684L257.586,110.684C254.898,113.939 252.594,117.074 252.594,121.294L252.594,182.421C252.594,186.641 254.898,189.897 257.586,193.031L232.625,193.031C235.441,189.897 237.617,186.641 237.617,182.421L237.617,133.954L225.584,193.031L211.632,193.031L199.471,133.954L199.471,182.421C199.471,186.641 201.775,189.897 204.463,193.031Z" style="fill:rgb(23,27,46);fill-rule:nonzero;"/>
            <path d="M288.691,180.131C295.475,180.131 298.931,176.875 298.931,170.485L298.931,166.265C298.931,159.755 295.475,156.62 288.691,156.62L282.034,156.62L282.034,180.131L288.691,180.131ZM287.411,143.599C294.323,143.599 297.651,140.464 297.651,133.954L297.651,133.35C297.651,126.84 294.323,123.705 287.411,123.705L282.034,123.705L282.034,143.599L287.411,143.599ZM287.923,110.684C304.436,110.684 312.628,113.578 312.628,130.698L312.628,135.4C312.628,140.223 310.708,148.542 301.492,149.627C309.812,150.11 313.908,155.414 313.908,164.819L313.908,173.017C313.908,185.918 305.588,193.031 289.203,193.031L262.065,193.031C264.753,189.897 267.057,186.641 267.057,182.421L267.057,156.62L262.065,156.62C264.753,153.365 267.057,150.23 267.057,146.01L267.057,121.294C267.057,117.074 264.753,113.939 262.065,110.684L287.923,110.684Z" style="fill:rgb(23,27,46);fill-rule:nonzero;"/>
            <path d="M347.702,180.131C351.542,180.131 351.286,176.634 351.286,174.705C351.286,168.315 348.598,166.989 347.574,164.216C353.974,163.854 360.886,158.187 371.255,159.514C368.439,162.648 366.263,170.606 366.263,174.826L366.263,182.421C366.263,186.641 368.439,189.897 371.255,193.031L320.052,193.031C322.74,189.897 325.044,186.641 325.044,182.421L325.044,151.195C322.868,151.918 320.948,153.365 320.308,156.017L320.052,156.017C320.052,152.641 321.076,145.407 325.044,141.308L325.044,121.294C325.044,117.074 322.74,113.939 320.052,110.684L371.255,110.684C368.439,113.939 366.263,117.074 366.263,121.294L366.263,129.01C366.263,133.23 368.439,141.067 371.255,144.202C361.398,143.84 354.486,138.415 347.574,139.5C348.598,136.727 351.286,135.4 351.286,129.131C351.286,127.081 351.542,123.705 347.702,123.705L340.021,123.705L340.021,141.067C343.349,143.237 346.678,145.769 352.182,145.769C353.718,145.769 356.278,145.528 357.686,142.876L357.942,142.996C357.686,148.301 354.358,157.464 347.958,157.464C345.141,157.464 342.709,155.535 340.021,153.606L340.021,180.131L347.702,180.131Z" style="fill:rgb(23,27,46);fill-rule:nonzero;"/>
            <path d="M401.592,148.301C408.504,148.301 411.832,145.166 411.832,138.656L411.832,132.145C411.832,125.634 408.504,123.705 401.592,123.705L396.215,123.705L396.215,148.301L401.592,148.301ZM396.215,161.322L396.215,182.421C396.215,186.641 398.519,189.897 401.207,193.031L376.246,193.031C378.934,189.897 381.238,186.641 381.238,182.421L381.238,161.322L376.246,161.322C378.934,158.067 381.238,154.932 381.238,150.712L381.238,121.294C381.238,117.074 378.934,113.939 376.246,110.684L402.104,110.684C418.617,110.684 426.809,117.436 426.809,130.698L426.809,141.308C426.809,151.074 420.409,158.067 410.552,160.358C414.008,160.478 419.129,160.237 422.969,158.429C420.025,160.96 420.025,166.265 422.329,171.571L427.065,182.421C428.729,186.521 434.361,197.613 439.866,198.939C437.562,199.542 435.514,199.783 433.593,199.783C423.353,199.783 417.208,193.031 410.168,193.031C412.6,189.414 412.984,186.762 411.064,182.421L403.384,164.337C402.488,162.287 400.951,161.322 398.647,161.322L396.215,161.322Z" style="fill:rgb(23,27,46);fill-rule:nonzero;"/>
            <path d="M479.616,153.485C484.736,155.294 487.168,162.046 487.168,167.23L487.168,177.237C487.168,189.535 479.872,197.251 465.151,197.251L437.629,197.251C440.317,194.116 442.621,190.861 442.621,186.641L442.621,179.046C442.621,174.826 440.317,166.868 437.629,163.733C447.998,162.407 454.91,168.074 461.311,168.436C460.159,171.209 457.598,172.535 457.598,178.563C457.598,182.301 458.622,184.351 464.895,184.351C468.863,184.351 472.191,183.507 472.191,176.996L472.191,170.847C472.191,167.592 470.527,165.663 467.327,164.457L452.35,159.031C445.566,156.62 441.341,151.436 441.341,144.925L441.341,134.918C441.341,118.762 448.766,114.904 463.487,114.904L488.448,114.904C485.632,118.159 483.456,121.294 483.456,125.514L483.456,133.23C483.456,137.45 485.632,145.287 488.448,148.422C478.591,148.06 471.679,142.634 464.767,143.719C465.791,140.946 468.479,139.62 468.479,133.833C468.479,129.855 467.199,127.925 462.847,127.925C457.214,127.925 456.318,131.06 456.318,137.57L456.318,140.946C456.318,144.081 457.854,146.372 461.055,147.457L479.616,153.485Z" style="fill:rgb(23,27,46);fill-rule:nonzero;"/>
            <path d="M192.217,12.563C183.022,12.563 179.201,19.086 171.916,19.086C174.066,22.46 173.349,24.71 172.752,28.871L161.083,66.496L157.706,28.871C157.109,24.934 158.423,22.01 160.214,19.086L135.376,19.086C137.167,22.01 138.362,24.934 137.884,28.871L134.96,66.496L122.838,28.871C122.36,24.71 121.524,22.46 123.674,19.086C116.39,19.086 112.569,12.563 103.374,12.563C101.463,12.563 99.194,12.9 96.686,13.575C101.821,14.812 106.837,24.822 107.553,28.871L118.42,97.254C119.256,102.09 119.136,103.889 117.106,106.813L141.248,106.813C140.583,103.667 139.529,101.815 138.795,100.522L138.679,100.321C138.421,99.876 137.886,99.154 137.093,98.19C137.014,98.266 136.916,98.324 136.809,98.366L136.346,98.534C135.954,98.677 135.491,98.475 135.339,98.115L135.25,97.897L134.939,98.014L135.045,98.291C135.197,98.668 134.992,99.087 134.6,99.23L134.137,99.398C134.048,99.431 133.95,99.448 133.861,99.448C133.54,99.448 133.247,99.255 133.131,98.978L133.024,98.719L132.89,98.744L132.063,98.744L131.635,98.442L130.7,95.507L130.735,95.18C131.056,94.634 132.483,92.603 132.768,91.983C132.377,91.04 132.285,90.449 132.285,90.449C130.3,76.041 136.622,72.736 136.898,72.602C137.005,72.535 137.218,72.417 137.521,72.275L138.127,72.501L142.748,83.865L142.685,84.276L142.534,84.461C142.819,85.367 143.701,85.904 144.057,86.088L147.922,84.695L149.399,84.159L149.409,84.159L149.48,84.134L150.896,83.622L152.427,83.077L152.427,83.069L152.436,83.069L152.498,83.052L153.193,82.8L155.419,80.209L150.593,68.232L150.869,67.687C151.118,67.612 151.376,67.57 151.626,67.57C152.053,67.57 152.329,67.687 152.373,67.712C152.667,67.838 152.961,67.972 153.238,68.107C153.246,68.107 153.255,68.107 153.264,68.115C153.273,68.115 153.273,68.124 153.273,68.124L153.282,68.124C153.309,68.132 153.326,68.14 153.344,68.157C153.683,68.308 154.012,68.467 154.333,68.627C154.351,68.643 154.368,68.652 154.386,68.66C154.395,68.66 154.413,68.668 154.422,68.677C154.956,68.945 155.472,69.23 155.962,69.515L155.971,69.515L155.98,69.524L155.998,69.524L155.998,69.532L156.007,69.54L156.015,69.54C156.015,69.54 156.025,69.54 156.025,69.549C156.033,69.549 156.042,69.557 156.051,69.566C156.06,69.566 156.06,69.574 156.06,69.574L156.069,69.574C156.078,69.574 156.087,69.582 156.096,69.591C156.906,70.052 157.654,70.539 158.339,71.025L158.357,71.025L158.357,71.042L158.375,71.059L158.393,71.059C158.447,71.092 158.5,71.134 158.544,71.176C158.598,71.21 158.651,71.252 158.705,71.294C158.812,71.369 158.918,71.444 159.017,71.52C159.221,71.671 159.417,71.822 159.604,71.981L159.613,71.989L159.639,71.998L159.631,72.006L159.631,72.014L159.649,72.014L159.649,72.023L159.657,72.023L159.657,72.031L159.667,72.031L159.667,72.04C159.836,72.165 160.005,72.308 160.165,72.451C160.21,72.484 160.245,72.518 160.289,72.568L160.307,72.568L160.307,72.576L160.316,72.585L160.325,72.585L160.325,72.593L160.334,72.593L160.334,72.602C160.504,72.736 160.663,72.879 160.815,73.03L160.824,73.021L160.842,73.047L160.851,73.047L160.851,73.055L160.86,73.072L160.868,73.072L160.895,73.088L160.913,73.114L160.913,73.122C160.975,73.172 161.038,73.231 161.1,73.298C161.144,73.332 161.189,73.374 161.225,73.415C161.269,73.449 161.305,73.491 161.341,73.524C161.349,73.533 161.349,73.533 161.349,73.541C161.358,73.541 161.358,73.55 161.358,73.55L161.367,73.55L161.385,73.541L161.385,73.55L161.376,73.558L161.376,73.566L161.385,73.566C161.474,73.65 161.554,73.742 161.634,73.826C161.705,73.893 161.777,73.969 161.848,74.044C161.857,74.053 161.857,74.053 161.866,74.061L161.866,74.069L161.875,74.069L161.892,74.061L161.875,74.078L161.884,74.086L161.892,74.086C161.937,74.137 161.981,74.178 162.017,74.229C162.284,74.505 162.525,74.791 162.747,75.067L162.757,75.076L162.757,75.084L162.765,75.084L162.774,75.093L162.828,75.151C162.845,75.185 162.872,75.21 162.89,75.235C163.13,75.529 163.344,75.814 163.54,76.091L163.558,76.083L163.558,76.091L163.549,76.099C163.558,76.116 163.566,76.133 163.584,76.15L163.584,76.158L163.594,76.166C163.682,76.292 163.771,76.418 163.852,76.544L163.878,76.56L163.869,76.569L163.869,76.577L163.878,76.585L163.923,76.611L163.923,76.619L163.914,76.627C163.932,76.661 163.949,76.694 163.976,76.728C163.976,76.736 163.985,76.745 163.985,76.753C164.047,76.845 164.11,76.938 164.163,77.03L164.181,77.021L164.208,77.072L164.234,77.114L164.216,77.122C164.261,77.198 164.305,77.265 164.35,77.34C164.404,77.416 164.439,77.483 164.475,77.55L164.492,77.542L164.546,77.642L164.564,77.701C164.599,77.768 164.635,77.827 164.662,77.894C164.697,77.945 164.724,78.003 164.751,78.054L164.751,78.062L164.76,78.062C164.76,78.07 164.769,78.07 164.769,78.079L164.778,78.07L164.786,78.079L164.804,78.154C164.858,78.255 164.911,78.355 164.955,78.456L164.965,78.456L164.973,78.464L165.018,78.557L165.018,78.59C165.036,78.624 165.053,78.657 165.063,78.691C165.08,78.716 165.089,78.741 165.098,78.766C165.134,78.825 165.16,78.875 165.178,78.934L165.178,78.951L165.187,78.951L165.196,78.942L165.241,79.034L165.223,79.034L165.223,79.043C165.285,79.16 165.339,79.286 165.383,79.403C165.392,79.412 165.392,79.429 165.392,79.437C165.41,79.479 165.419,79.512 165.436,79.554C165.49,79.663 165.526,79.764 165.561,79.865L165.579,79.89L165.57,79.89L165.57,79.898L165.579,79.898L165.579,79.915L165.588,79.932C165.623,80.032 165.659,80.125 165.686,80.217L165.695,80.217L165.704,80.25L165.704,80.259C165.713,80.276 165.713,80.293 165.721,80.31C165.748,80.393 165.775,80.477 165.792,80.553L165.802,80.595L165.828,80.653L165.837,80.67C165.882,80.813 165.917,80.947 165.953,81.073L165.953,81.089C165.953,81.098 165.953,81.098 165.962,81.098C165.989,81.224 166.015,81.341 166.042,81.45L166.051,81.45L166.051,81.467C166.078,81.576 166.104,81.693 166.122,81.794C166.122,81.819 166.131,81.836 166.131,81.861L166.131,81.877L166.14,81.877C166.14,81.894 166.149,81.919 166.149,81.945L166.149,81.953C166.166,82.028 166.184,82.104 166.194,82.171L166.194,82.213L166.202,82.213L166.202,82.263C166.22,82.356 166.238,82.44 166.247,82.515C166.256,82.549 166.256,82.582 166.256,82.616C166.273,82.734 166.291,82.843 166.3,82.943C166.327,83.128 166.345,83.304 166.345,83.488C166.354,83.647 166.354,83.782 166.354,83.882C166.354,84.067 166.345,84.243 166.318,84.41C166.104,88.067 163.486,91.69 160.067,96.446C159.408,97.36 158.723,98.316 158.01,99.322C156.166,101.942 155.053,104.554 154.38,106.813L178.484,106.813C176.454,103.889 176.335,102.09 177.171,97.254L188.037,28.871C188.754,24.822 193.769,14.812 198.904,13.575C196.396,12.9 194.127,12.563 192.217,12.563Z" style="fill:rgb(23,27,46);fill-rule:nonzero;"/>
            <path d="M154.154,176.758C154.172,178.444 153.496,180.029 152.249,181.237C151.002,182.436 149.328,183.116 147.538,183.132L147.467,183.132C143.825,183.132 140.825,180.34 140.78,176.91L140.78,176.758L141.875,113.488C141.875,112.479 141.839,111.55 141.777,110.684L120.108,110.684C122.796,113.939 125.1,117.074 125.1,121.294L125.1,173.017C125.1,187.365 131.757,194.237 147.629,194.237C162.862,194.237 170.671,188.088 170.671,173.017L170.671,121.294C170.671,117.074 172.847,113.939 175.663,110.684L153.551,110.684C153.409,111.763 153.373,112.602 153.371,113.085L154.154,176.758Z" style="fill:rgb(23,27,46);fill-rule:nonzero;"/>
            <path d="M259.159,85.931L259.159,80.974L263.578,80.124L263.578,51.065L256.071,51.065L255.619,55.993L249.36,55.993L249.36,44.692L286.152,44.692L286.152,55.993L279.864,55.993L279.411,51.065L271.849,51.065L271.849,80.124L276.295,80.974L276.295,85.931L259.159,85.931Z" style="fill:rgb(23,27,46);fill-rule:nonzero;"/>
            <path d="M289.013,85.931L289.013,80.974L293.403,80.124L293.403,50.527L289.013,49.677L289.013,44.692L306.092,44.692L306.092,49.677L301.674,50.527L301.674,62.422L318.498,62.422L318.498,50.527L314.079,49.677L314.079,44.692L331.158,44.692L331.158,49.677L326.74,50.527L326.74,80.124L331.158,80.974L331.158,85.931L314.079,85.931L314.079,80.974L318.498,80.124L318.498,68.795L301.674,68.795L301.674,80.124L306.092,80.974L306.092,85.931L289.013,85.931Z" style="fill:rgb(23,27,46);fill-rule:nonzero;"/>
            <path d="M334.33,85.931L334.33,80.974L338.721,80.124L338.721,50.527L334.33,49.677L334.33,44.692L366.336,44.692L366.336,55.823L359.991,55.823L359.623,51.065L346.991,51.065L346.991,61.431L360.954,61.431L360.954,67.804L346.991,67.804L346.991,79.586L360.303,79.586L360.671,74.659L366.959,74.659L366.959,85.931L334.33,85.931Z" style="fill:rgb(23,27,46);fill-rule:nonzero;"/>
            <rect x="248.504" y="92.259" width="120.867" height="5.719" style="fill:rgb(180,45,43);fill-rule:nonzero;"/>
            <rect x="248.504" y="33.47" width="120.867" height="5.719" style="fill:rgb(180,45,43);fill-rule:nonzero;"/>
            <path d="M113.908,216.9L111.985,211.964L114.049,211.453L115.714,215.299L116.687,215.527L116.687,216.9L113.908,216.9ZM110.062,210.621L111.93,210.621C112.589,210.621 113.083,210.481 113.41,210.201C113.736,209.922 113.9,209.515 113.9,208.981C113.9,208.453 113.738,208.03 113.414,207.714C113.089,207.397 112.608,207.238 111.969,207.238L110.062,207.238L110.062,210.621ZM106.554,216.9L106.554,215.527L107.771,215.291L107.771,207.09L106.554,206.854L106.554,205.473L111.969,205.473C112.849,205.473 113.602,205.609 114.23,205.881C114.858,206.153 115.34,206.543 115.678,207.051C116.015,207.558 116.184,208.168 116.184,208.879C116.184,209.549 116.017,210.148 115.682,210.677C115.347,211.205 114.881,211.621 114.285,211.925C113.688,212.228 113,212.382 112.221,212.388L110.062,212.388L110.062,215.291L111.287,215.527L111.287,216.9L106.554,216.9Z" style="fill:rgb(180,45,43);fill-rule:nonzero;"/>
            <path d="M117.605,216.9L117.605,215.527L118.821,215.291L118.821,207.09L117.605,206.854L117.605,205.473L126.474,205.473L126.474,208.558L124.715,208.558L124.613,207.238L121.113,207.238L121.113,210.111L124.983,210.111L124.983,211.877L121.113,211.877L121.113,215.143L124.802,215.143L124.904,213.776L126.646,213.776L126.646,216.9L117.605,216.9Z" style="fill:rgb(180,45,43);fill-rule:nonzero;"/>
            <path d="M132.392,216.9L128.718,206.979L127.698,206.854L127.698,205.473L132.242,205.473L132.242,206.854L131.214,207.011L133.459,213.753L133.631,214.381L133.679,214.381L133.843,213.769L136.089,207.011L134.887,206.854L134.887,205.473L139.22,205.473L139.22,206.854L138.184,206.979L134.738,216.9L132.392,216.9Z" style="fill:rgb(180,45,43);fill-rule:nonzero;"/>
            <path d="M145.154,215.283C145.802,215.283 146.341,215.116 146.771,214.781C147.199,214.446 147.523,213.979 147.74,213.376C147.957,212.774 148.066,212.073 148.066,211.272L148.066,211.085C148.066,210.295 147.956,209.6 147.736,209.001C147.516,208.401 147.191,207.935 146.759,207.6C146.327,207.265 145.79,207.098 145.146,207.098C144.507,207.098 143.976,207.264 143.552,207.596C143.129,207.928 142.811,208.393 142.599,208.989C142.387,209.586 142.281,210.284 142.281,211.085L142.281,211.272C142.281,212.073 142.387,212.774 142.599,213.376C142.811,213.979 143.13,214.446 143.556,214.781C143.983,215.116 144.515,215.283 145.154,215.283ZM145.154,217.065C144.384,217.065 143.683,216.921 143.05,216.634C142.417,216.346 141.872,215.941 141.414,215.421C140.956,214.9 140.604,214.288 140.358,213.584C140.112,212.881 139.989,212.11 139.989,211.272L139.989,211.101C139.989,210.269 140.112,209.5 140.358,208.797C140.604,208.093 140.955,207.479 141.41,206.956C141.865,206.433 142.409,206.027 143.043,205.739C143.675,205.452 144.377,205.308 145.146,205.308C145.92,205.308 146.627,205.452 147.265,205.739C147.903,206.027 148.453,206.433 148.913,206.956C149.374,207.479 149.728,208.093 149.977,208.797C150.225,209.5 150.35,210.269 150.35,211.101L150.35,211.272C150.35,212.11 150.225,212.881 149.977,213.584C149.728,214.288 149.374,214.9 148.913,215.421C148.453,215.941 147.904,216.346 147.269,216.634C146.633,216.921 145.928,217.065 145.154,217.065Z" style="fill:rgb(180,45,43);fill-rule:nonzero;"/>
            <path d="M151.268,216.9L151.268,215.527L152.485,215.291L152.485,207.09L151.268,206.854L151.268,205.473L156.157,205.473L156.157,206.854L154.776,207.09L154.776,215.143L158.002,215.143L158.112,213.471L159.862,213.471L159.862,216.9L151.268,216.9Z" style="fill:rgb(180,45,43);fill-rule:nonzero;"/>
            <path d="M166.337,217.065C165.431,217.065 164.635,216.908 163.947,216.595C163.259,216.28 162.724,215.825 162.342,215.229C161.96,214.632 161.769,213.907 161.769,213.055L161.769,207.09L160.552,206.854L160.552,205.473L165.285,205.473L165.285,206.854L164.061,207.09L164.061,213.055C164.061,213.557 164.152,213.976 164.336,214.311C164.519,214.645 164.78,214.895 165.12,215.06C165.46,215.225 165.866,215.307 166.337,215.307C166.818,215.307 167.23,215.225 167.573,215.06C167.916,214.895 168.178,214.645 168.362,214.311C168.545,213.976 168.636,213.557 168.636,213.055L168.636,207.09L167.42,206.854L167.42,205.473L172.152,205.473L172.152,206.854L170.928,207.09L170.928,213.055C170.928,213.907 170.736,214.634 170.351,215.232C169.967,215.832 169.43,216.287 168.742,216.599C168.054,216.909 167.253,217.065 166.337,217.065Z" style="fill:rgb(180,45,43);fill-rule:nonzero;"/>
            <path d="M175.52,216.9L175.52,215.527L176.744,215.291L176.744,207.238L174.665,207.238L174.539,208.604L172.804,208.604L172.804,205.473L183,205.473L183,208.604L181.257,208.604L181.132,207.238L179.036,207.238L179.036,215.291L180.269,215.527L180.269,216.9L175.52,216.9Z" style="fill:rgb(180,45,43);fill-rule:nonzero;"/>
            <path d="M183.792,216.9L183.792,215.527L185.009,215.291L185.009,207.09L183.792,206.854L183.792,205.473L188.517,205.473L188.517,206.854L187.3,207.09L187.3,215.291L188.517,215.527L188.517,216.9L183.792,216.9Z" style="fill:rgb(180,45,43);fill-rule:nonzero;"/>
            <path d="M194.631,215.283C195.28,215.283 195.819,215.116 196.248,214.781C196.677,214.446 197,213.979 197.217,213.376C197.434,212.774 197.543,212.073 197.543,211.272L197.543,211.085C197.543,210.295 197.433,209.6 197.214,209.001C196.994,208.401 196.668,207.935 196.236,207.6C195.805,207.265 195.267,207.098 194.623,207.098C193.985,207.098 193.454,207.264 193.03,207.596C192.606,207.928 192.288,208.393 192.076,208.989C191.864,209.586 191.758,210.284 191.758,211.085L191.758,211.272C191.758,212.073 191.864,212.774 192.076,213.376C192.288,213.979 192.608,214.446 193.034,214.781C193.461,215.116 193.993,215.283 194.631,215.283ZM194.631,217.065C193.862,217.065 193.161,216.921 192.528,216.634C191.895,216.346 191.349,215.941 190.891,215.421C190.433,214.9 190.082,214.288 189.836,213.584C189.589,212.881 189.467,212.11 189.467,211.272L189.467,211.101C189.467,210.269 189.589,209.5 189.836,208.797C190.082,208.093 190.432,207.479 190.887,206.956C191.343,206.433 191.887,206.027 192.52,205.739C193.153,205.452 193.854,205.308 194.623,205.308C195.398,205.308 196.104,205.452 196.742,205.739C197.381,206.027 197.93,206.433 198.391,206.956C198.851,207.479 199.206,208.093 199.454,208.797C199.703,209.5 199.827,210.269 199.827,211.101L199.827,211.272C199.827,212.11 199.703,212.881 199.454,213.584C199.206,214.288 198.851,214.9 198.391,215.421C197.93,215.941 197.382,216.346 196.746,216.634C196.11,216.921 195.405,217.065 194.631,217.065Z" style="fill:rgb(180,45,43);fill-rule:nonzero;"/>
            <path d="M200.745,216.9L200.745,215.527L201.962,215.291L201.962,207.09L200.745,206.854L200.745,205.473L204.285,205.473L209.261,213.399L209.308,213.392L209.308,207.09L207.848,206.854L207.848,205.473L212.581,205.473L212.581,206.854L211.357,207.09L211.357,216.9L209.143,216.9L204.057,209.052L204.01,209.06L204.01,215.291L205.478,215.527L205.478,216.9L200.745,216.9Z" style="fill:rgb(180,45,43);fill-rule:nonzero;"/>
            <path d="M217.361,212.128L220.297,212.128L218.962,208.212L218.852,207.866L218.805,207.866L218.688,208.235L217.361,212.128ZM213.217,216.9L213.217,215.527L214.033,215.409L217.667,205.473L220.014,205.473L223.624,215.409L224.441,215.527L224.441,216.9L220.548,216.9L220.548,215.527L221.34,215.386L220.838,213.815L216.819,213.815L216.317,215.386L217.11,215.527L217.11,216.9L213.217,216.9Z" style="fill:rgb(180,45,43);fill-rule:nonzero;"/>
            <path d="M232.556,216.9L230.633,211.964L232.697,211.453L234.361,215.299L235.335,215.527L235.335,216.9L232.556,216.9ZM228.71,210.621L230.578,210.621C231.237,210.621 231.731,210.481 232.058,210.201C232.384,209.922 232.548,209.515 232.548,208.981C232.548,208.453 232.386,208.03 232.062,207.714C231.737,207.397 231.256,207.238 230.617,207.238L228.71,207.238L228.71,210.621ZM225.202,216.9L225.202,215.527L226.419,215.291L226.419,207.09L225.202,206.854L225.202,205.473L230.617,205.473C231.497,205.473 232.25,205.609 232.878,205.881C233.506,206.153 233.988,206.543 234.326,207.051C234.663,207.558 234.832,208.168 234.832,208.879C234.832,209.549 234.665,210.148 234.33,210.677C233.995,211.205 233.529,211.621 232.933,211.925C232.336,212.228 231.648,212.382 230.869,212.388L228.71,212.388L228.71,215.291L229.935,215.527L229.935,216.9L225.202,216.9Z" style="fill:rgb(180,45,43);fill-rule:nonzero;"/>
            <path d="M238.576,216.9L238.576,215.527L239.8,215.291L239.8,212.984L236.41,207.011L235.311,206.854L235.311,205.473L239.871,205.473L239.871,206.854L238.937,206.987L240.837,210.637L241.009,211.006L241.056,210.998L241.229,210.653L243.34,206.987L242.085,206.854L242.085,205.473L246.558,205.473L246.558,206.854L245.428,207.011L242.085,212.804L242.085,215.291L243.309,215.527L243.309,216.9L238.576,216.9Z" style="fill:rgb(180,45,43);fill-rule:nonzero;"/>
            <path d="M256.683,217.065C255.573,217.065 254.608,216.834 253.786,216.371C252.965,215.907 252.33,215.251 251.883,214.4C251.436,213.551 251.212,212.544 251.212,211.383L251.212,210.998C251.212,209.889 251.428,208.906 251.86,208.051C252.291,207.195 252.907,206.524 253.708,206.038C254.508,205.551 255.461,205.308 256.565,205.308C257.338,205.308 258.065,205.418 258.742,205.638C259.42,205.857 260.026,206.192 260.56,206.643L260.56,209.405L258.857,209.405L258.621,207.67C258.448,207.545 258.26,207.437 258.056,207.349C257.851,207.26 257.631,207.191 257.393,207.145C257.153,207.098 256.897,207.074 256.618,207.074C255.971,207.074 255.413,207.233 254.948,207.553C254.483,207.872 254.125,208.323 253.876,208.906C253.628,209.49 253.504,210.182 253.504,210.982L253.504,211.383C253.504,212.184 253.635,212.877 253.897,213.463C254.157,214.049 254.529,214.503 255.011,214.824C255.492,215.146 256.062,215.307 256.721,215.307C257.051,215.307 257.381,215.27 257.715,215.193C258.047,215.117 258.349,215.02 258.621,214.899L258.857,213.29L260.56,213.29L260.56,216.021C260.114,216.314 259.561,216.562 258.896,216.763C258.232,216.965 257.493,217.065 256.683,217.065Z" style="fill:rgb(180,45,43);fill-rule:nonzero;"/>
            <path d="M268.966,216.9L267.043,211.964L269.107,211.453L270.771,215.299L271.744,215.527L271.744,216.9L268.966,216.9ZM265.12,210.621L266.987,210.621C267.648,210.621 268.14,210.481 268.467,210.201C268.794,209.922 268.958,209.515 268.958,208.981C268.958,208.453 268.796,208.03 268.471,207.714C268.147,207.397 267.665,207.238 267.027,207.238L265.12,207.238L265.12,210.621ZM261.611,216.9L261.611,215.527L262.828,215.291L262.828,207.09L261.611,206.854L261.611,205.473L267.027,205.473C267.906,205.473 268.659,205.609 269.287,205.881C269.915,206.153 270.399,206.543 270.735,207.051C271.073,207.558 271.241,208.168 271.241,208.879C271.241,209.549 271.074,210.148 270.739,210.677C270.404,211.205 269.939,211.621 269.343,211.925C268.746,212.228 268.058,212.382 267.278,212.388L265.12,212.388L265.12,215.291L266.344,215.527L266.344,216.9L261.611,216.9Z" style="fill:rgb(180,45,43);fill-rule:nonzero;"/>
            <path d="M276.689,212.128L279.624,212.128L278.29,208.212L278.18,207.866L278.133,207.866L278.015,208.235L276.689,212.128ZM272.545,216.9L272.545,215.527L273.36,215.409L276.995,205.473L279.342,205.473L282.952,215.409L283.768,215.527L283.768,216.9L279.875,216.9L279.875,215.527L280.668,215.386L280.165,213.815L276.148,213.815L275.645,215.386L276.438,215.527L276.438,216.9L272.545,216.9Z" style="fill:rgb(180,45,43);fill-rule:nonzero;"/>
            <path d="M284.529,216.9L284.529,215.527L285.746,215.291L285.746,207.09L284.529,206.854L284.529,205.473L293.626,205.473L293.626,208.604L291.868,208.604L291.766,207.238L288.038,207.238L288.038,210.386L292.04,210.386L292.04,212.152L288.038,212.152L288.038,215.291L289.262,215.527L289.262,216.9L284.529,216.9Z" style="fill:rgb(180,45,43);fill-rule:nonzero;"/>
            <path d="M297.244,216.9L297.244,215.527L298.469,215.291L298.469,207.238L296.389,207.238L296.264,208.604L294.529,208.604L294.529,205.473L304.725,205.473L304.725,208.604L302.983,208.604L302.857,207.238L300.761,207.238L300.761,215.291L301.993,215.527L301.993,216.9L297.244,216.9Z" style="fill:rgb(180,45,43);fill-rule:nonzero;"/>
            <path d="M310.179,217.065C309.336,217.065 308.569,216.971 307.879,216.782C307.189,216.595 306.508,216.268 305.839,215.802L305.839,213.039L307.612,213.039L307.856,214.663C308.091,214.862 308.415,215.023 308.829,215.146C309.242,215.27 309.693,215.331 310.179,215.331C310.592,215.331 310.942,215.273 311.227,215.158C311.512,215.043 311.729,214.879 311.878,214.667C312.027,214.455 312.102,214.206 312.102,213.918C312.102,213.645 312.035,213.404 311.901,213.192C311.769,212.98 311.549,212.786 311.242,212.611C310.937,212.436 310.522,212.268 309.998,212.104C309.093,211.838 308.344,211.547 307.75,211.229C307.155,210.913 306.711,210.534 306.415,210.092C306.12,209.649 305.972,209.117 305.972,208.494C305.972,207.877 306.144,207.332 306.486,206.858C306.829,206.385 307.304,206.012 307.91,205.739C308.518,205.468 309.219,205.326 310.014,205.315C310.893,205.306 311.671,205.41 312.349,205.63C313.026,205.85 313.611,206.155 314.104,206.548L314.104,209.122L312.384,209.122L312.086,207.553C311.887,207.427 311.619,207.317 311.281,207.223C310.944,207.129 310.561,207.082 310.132,207.082C309.766,207.082 309.443,207.137 309.162,207.246C308.883,207.356 308.661,207.516 308.499,207.726C308.337,207.935 308.256,208.188 308.256,208.486C308.256,208.743 308.326,208.967 308.468,209.157C308.609,209.349 308.846,209.529 309.178,209.699C309.511,209.869 309.97,210.051 310.556,210.245C311.817,210.596 312.773,211.059 313.424,211.634C314.075,212.21 314.401,212.966 314.401,213.902C314.401,214.551 314.226,215.112 313.875,215.586C313.525,216.06 313.033,216.425 312.401,216.681C311.767,216.937 311.026,217.065 310.179,217.065Z" style="fill:rgb(180,45,43);fill-rule:nonzero;"/>
            <path d="M315.304,216.9L315.304,215.527L316.521,215.291L316.521,207.09L315.304,206.854L315.304,205.473L319.911,205.473L323.026,213.439L323.074,213.439L326.088,205.473L330.703,205.473L330.703,206.854L329.479,207.09L329.479,215.291L330.703,215.527L330.703,216.9L325.97,216.9L325.97,215.527L327.249,215.291L327.249,213.102L327.289,207.945L327.241,207.937L323.827,216.743L322.093,216.743L318.601,208.008L318.553,208.016L318.687,212.866L318.687,215.291L320.036,215.527L320.036,216.9L315.304,216.9Z" style="fill:rgb(180,45,43);fill-rule:nonzero;"/>
            <path d="M335.546,212.128L338.482,212.128L337.148,208.212L337.037,207.866L336.99,207.866L336.872,208.235L335.546,212.128ZM331.402,216.9L331.402,215.527L332.218,215.409L335.853,205.473L338.199,205.473L341.81,215.409L342.625,215.527L342.625,216.9L338.733,216.9L338.733,215.527L339.526,215.386L339.023,213.815L335.005,213.815L334.502,215.386L335.295,215.527L335.295,216.9L331.402,216.9Z" style="fill:rgb(180,45,43);fill-rule:nonzero;"/>
            <path d="M343.387,216.9L343.387,215.527L344.604,215.291L344.604,207.09L343.387,206.854L343.387,205.473L346.927,205.473L351.902,213.399L351.949,213.392L351.949,207.09L350.49,206.854L350.49,205.473L355.223,205.473L355.223,206.854L353.998,207.09L353.998,216.9L351.785,216.9L346.699,209.052L346.651,209.06L346.651,215.291L348.119,215.527L348.119,216.9L343.387,216.9Z" style="fill:rgb(180,45,43);fill-rule:nonzero;"/>
            <path d="M360.638,217.065C359.795,217.065 359.028,216.971 358.338,216.782C357.648,216.595 356.967,216.268 356.298,215.802L356.298,213.039L358.071,213.039L358.315,214.663C358.55,214.862 358.874,215.023 359.288,215.146C359.701,215.27 360.151,215.331 360.638,215.331C361.051,215.331 361.401,215.273 361.686,215.158C361.971,215.043 362.188,214.879 362.337,214.667C362.486,214.455 362.561,214.206 362.561,213.918C362.561,213.645 362.494,213.404 362.36,213.192C362.228,212.98 362.008,212.786 361.701,212.611C361.396,212.436 360.981,212.268 360.457,212.104C359.552,211.838 358.803,211.547 358.209,211.229C357.614,210.913 357.17,210.534 356.874,210.092C356.579,209.649 356.431,209.117 356.431,208.494C356.431,207.877 356.603,207.332 356.945,206.858C357.288,206.385 357.763,206.012 358.369,205.739C358.977,205.468 359.678,205.326 360.473,205.315C361.352,205.306 362.13,205.41 362.808,205.63C363.485,205.85 364.07,206.155 364.563,206.548L364.563,209.122L362.843,209.122L362.545,207.553C362.346,207.427 362.078,207.317 361.74,207.223C361.403,207.129 361.02,207.082 360.591,207.082C360.225,207.082 359.901,207.137 359.621,207.246C359.342,207.356 359.12,207.516 358.958,207.726C358.796,207.935 358.715,208.188 358.715,208.486C358.715,208.743 358.785,208.967 358.927,209.157C359.068,209.349 359.305,209.529 359.637,209.699C359.97,209.869 360.429,210.051 361.015,210.245C362.276,210.596 363.232,211.059 363.883,211.634C364.534,212.21 364.86,212.966 364.86,213.902C364.86,214.551 364.685,215.112 364.334,215.586C363.984,216.06 363.492,216.425 362.859,216.681C362.226,216.937 361.485,217.065 360.638,217.065Z" style="fill:rgb(180,45,43);fill-rule:nonzero;"/>
            <path d="M365.763,216.9L365.763,215.527L366.98,215.291L366.98,207.09L365.763,206.854L365.763,205.473L370.495,205.473L370.495,206.854L369.272,207.09L369.272,210.386L373.934,210.386L373.934,207.09L372.709,206.854L372.709,205.473L377.442,205.473L377.442,206.854L376.217,207.09L376.217,215.291L377.442,215.527L377.442,216.9L372.709,216.9L372.709,215.527L373.934,215.291L373.934,212.152L369.272,212.152L369.272,215.291L370.495,215.527L370.495,216.9L365.763,216.9Z" style="fill:rgb(180,45,43);fill-rule:nonzero;"/>
            <path d="M378.32,216.9L378.32,215.527L379.537,215.291L379.537,207.09L378.32,206.854L378.32,205.473L383.045,205.473L383.045,206.854L381.829,207.09L381.829,215.291L383.045,215.527L383.045,216.9L378.32,216.9Z" style="fill:rgb(180,45,43);fill-rule:nonzero;"/>
            <path d="M387.434,210.99L389.364,210.99C390.002,210.99 390.485,210.816 390.813,210.469C391.139,210.12 391.303,209.677 391.303,209.138C391.303,208.589 391.139,208.135 390.813,207.776C390.485,207.418 390.002,207.238 389.364,207.238L387.434,207.238L387.434,210.99ZM383.925,216.9L383.925,215.527L385.142,215.291L385.142,207.09L383.925,206.854L383.925,205.473L389.364,205.473C390.237,205.473 390.991,205.626 391.624,205.932C392.258,206.238 392.744,206.664 393.084,207.211C393.424,207.758 393.595,208.395 393.595,209.122C393.595,209.85 393.424,210.487 393.084,211.033C392.744,211.58 392.258,212.004 391.624,212.305C390.991,212.605 390.237,212.756 389.364,212.756L387.434,212.756L387.434,215.291L388.657,215.527L388.657,216.9L383.925,216.9Z" style="fill:rgb(180,45,43);fill-rule:nonzero;"/>
        </g>
    </g>
</svg>
